<svg width="570" height="154" viewBox="0 0 570 154" fill="none" xmlns="http://www.w3.org/2000/svg">
<path d="M88.5131 116.864H26.7059C25.6862 116.864 24.8555 116.033 24.8555 115.013V58.513C24.8555 41.1528 38.9772 27.0308 56.3338 27.0308H59.2446C65.1985 27.0308 70.9863 28.7383 75.9799 31.9682C76.7633 32.4748 76.9875 33.5204 76.481 34.3039C75.9745 35.0901 74.9277 35.3116 74.1456 34.8051C69.6991 31.929 64.5461 30.408 59.2446 30.408H56.3338C40.8384 30.408 28.2322 43.0157 28.2322 58.513V113.487H86.9882V58.5319C86.9882 55.4762 86.5087 52.4732 85.5605 49.6026C85.2687 48.7177 85.7496 47.7627 86.6343 47.4695C87.519 47.1764 88.474 47.6586 88.7671 48.5435C89.8274 51.7545 90.3649 55.1155 90.3649 58.5305V115.012C90.3649 116.032 89.5343 116.863 88.5145 116.863L88.5131 116.864Z" fill="#4D4D4D"/>
<path d="M83.0985 91.9138H32.4023C31.4703 91.9138 30.7139 91.1573 30.7139 90.2252C30.7139 89.2931 31.4703 88.5366 32.4023 88.5366H83.0985C84.0305 88.5366 84.7869 89.2931 84.7869 90.2252C84.7869 91.1573 84.0305 91.9138 83.0985 91.9138Z" fill="#4D4D4D"/>
<path d="M70.2599 99.1575H45.5702C44.6382 99.1575 43.8818 98.401 43.8818 97.4689C43.8818 96.5368 44.6382 95.7803 45.5702 95.7803H70.2599C71.1919 95.7803 71.9483 96.5368 71.9483 97.4689C71.9483 98.401 71.1919 99.1575 70.2599 99.1575Z" fill="#4D4D4D"/>
<path d="M45.6312 78.8032C50.6651 78.8032 54.7458 74.722 54.7458 69.6875C54.7458 64.653 50.6651 60.5718 45.6312 60.5718C40.5973 60.5718 36.5166 64.653 36.5166 69.6875C36.5166 74.722 40.5973 78.8032 45.6312 78.8032Z" fill="#FAC171"/>
<path d="M72.8024 54.1316C72.5444 54.3275 72.1676 54.1491 72.1352 53.8276C71.9461 51.9405 71.9352 47.2475 76.3858 46.7409C79.9247 46.337 87.7278 50.5085 87.7278 50.5085C82.0021 50.8598 75.7794 51.8716 72.8024 54.1316Z" fill="#4D4D4D"/>
<path d="M73.5694 40.25C72.8089 39.9582 72.6995 38.9329 73.3695 38.4695C75.2334 37.1781 78.567 35.7651 81.9141 38.7627C85.1098 41.6252 87.8342 50.9044 87.8342 50.9044C83.2378 46.4059 77.7957 41.8683 73.5694 40.25Z" fill="#4D4D4D"/>
<path d="M102.726 31.7078C103.101 31.3849 102.903 30.7743 102.41 30.7392C99.2984 30.523 91.5574 30.5852 88.9033 36.1656C86.78 40.633 87.3662 50.9375 87.3662 50.9375C90.4444 43.7846 98.3812 35.4551 102.726 31.7078Z" fill="#4D4D4D"/>
<path d="M105.564 48.4026C105.887 48.4755 106.173 48.1837 106.06 47.8717C105.405 46.0791 103.237 41.6874 98.0365 42.9518C93.9276 43.9514 87.2227 50.8206 87.2227 50.8206C93.7885 48.9092 101.228 47.4232 105.564 48.4026Z" fill="#4D4D4D"/>
<path d="M112.689 60.8779C115.729 60.1687 119.598 59.7026 123.691 59.7026C130.499 59.7026 134.955 61.1818 137.973 64.2213C140.182 66.43 141.337 69.3884 141.337 73.2182C141.337 78.7905 137.386 83.5118 131.936 85.3963V85.6192C136.494 86.6324 143.464 90.6242 143.464 99.5197C143.464 103.978 141.884 107.401 139.412 109.955C135.806 113.684 129.93 115.183 122.171 115.183C118.018 115.183 114.817 114.879 112.689 114.697V60.8806V60.8779ZM116.539 84.1589H124.522C132.423 84.1589 137.386 79.4781 137.386 73.4194C137.386 65.7397 131.571 62.9434 123.468 62.9434C119.841 62.9434 117.775 63.2271 116.539 63.531V84.1589ZM116.539 111.493C118.14 111.837 120.389 111.938 123.225 111.938C131.613 111.938 139.454 108.939 139.454 99.64C139.454 91.0079 132.079 87.32 123.428 87.2997H116.539V111.493Z" fill="#4D4D4D" stroke="#4D4D4D" stroke-miterlimit="10"/>
<path d="M193.103 94.9376C193.103 109.465 183.155 115.647 174.483 115.647C164.414 115.647 156.655 107.825 156.655 95.6076C156.655 82.2961 165.388 74.9595 175.052 74.9595C185.789 74.9595 193.103 83.0229 193.103 94.9376ZM160.545 95.4239C160.545 105.15 166.745 112.445 174.748 112.445C182.832 112.445 189.213 105.089 189.213 95.1213C189.213 88.009 185.201 78.1611 174.949 78.1611C165.042 78.1611 160.545 87.0363 160.545 95.4239Z" fill="#4D4D4D" stroke="#4D4D4D" stroke-miterlimit="10"/>
<path d="M209.068 85.1518C209.068 81.5855 208.947 78.9108 208.744 75.8511H212.33L212.614 82.8824H212.776C214.903 78.5055 219.785 74.9595 226.168 74.9595C229.876 74.9595 239.742 76.8642 239.742 91.4334V114.755H235.892V91.7779C235.892 84.6858 233.157 78.2637 225.113 78.2637C219.643 78.2637 214.983 82.1745 213.443 87.2187C213.16 88.1508 212.916 89.4679 212.916 90.6837V114.755H209.067L209.068 85.1518Z" fill="#4D4D4D" stroke="#4D4D4D" stroke-miterlimit="10"/>
<path d="M291.164 114.756L273.053 60.1289H277.105L286.749 89.4078C289.363 97.3104 291.612 104.261 293.151 110.338H293.354C294.975 104.178 297.507 97.0673 300.324 89.4281L310.981 60.1289H315.073L294.855 114.756H291.167H291.164Z" fill="#4D4D4D" stroke="#4D4D4D" stroke-miterlimit="10"/>
<path d="M359.644 94.9376C359.644 109.465 349.696 115.647 341.024 115.647C330.955 115.647 323.196 107.825 323.196 95.6076C323.196 82.2961 331.929 74.9595 341.592 74.9595C352.33 74.9595 359.644 83.0229 359.644 94.9376ZM327.086 95.4239C327.086 105.15 333.286 112.445 341.289 112.445C349.372 112.445 355.754 105.089 355.754 95.1213C355.754 88.009 351.742 78.1611 341.49 78.1611C331.583 78.1611 327.086 87.0363 327.086 95.4239Z" fill="#FAC171" stroke="#FAC171" stroke-miterlimit="10"/>
<path d="M375.307 75.8511L385.498 101.28C386.572 104.036 387.645 107.177 388.355 109.669H388.517C389.307 107.258 390.32 104.218 391.475 101.037L400.997 75.8511H405.11L393.44 104.887C388.739 116.962 385.437 124.176 380.352 128.593C377.272 131.228 374.456 132.342 373.544 132.646L372.308 129.424C374.233 128.695 376.806 127.337 379.095 125.089C381.04 123.184 383.634 119.942 385.598 115.302C385.922 114.471 386.064 114.005 386.064 113.62C386.064 113.256 385.942 112.708 385.598 111.918L371.192 75.8511H375.305H375.307Z" fill="#4D4D4D" stroke="#4D4D4D" stroke-miterlimit="10"/>
<path d="M441.232 114.755L440.665 109.183H440.483C438.598 112.182 434.263 115.647 428.083 115.647C420.262 115.647 416.636 110.135 416.636 104.948C416.636 95.971 424.537 90.5621 440.36 90.7242V89.6908C440.36 85.8408 439.61 78.1611 430.412 78.2218C427.008 78.2218 423.462 79.1337 420.646 81.1195L419.43 78.3232C422.976 75.9118 427.312 74.9595 430.837 74.9595C442.062 74.9595 444.208 83.3889 444.208 90.3392V105.515C444.208 108.595 444.329 111.776 444.775 114.755H441.229H441.232ZM440.361 93.9663C431.892 93.7232 420.709 94.9997 420.709 104.341C420.709 109.934 424.396 112.446 428.448 112.446C434.931 112.446 438.619 108.434 439.956 104.645C440.239 103.814 440.361 102.983 440.361 102.315V93.9663Z" fill="#4D4D4D" stroke="#4D4D4D" stroke-miterlimit="10"/>
<path d="M494.212 75.8511C494.01 78.7487 493.888 81.8287 493.888 85.9002V109.081C493.888 119.049 491.842 123.995 488.56 127.094C485.014 130.478 479.787 131.694 475.39 131.694C470.953 131.694 465.989 130.559 463.031 128.35L464.409 125.25C467.104 127.013 470.933 128.492 475.976 128.492C484.142 128.492 490.037 124.257 490.037 112.729V107.237H489.875C487.849 111.189 483.291 114.755 476.341 114.755C466.577 114.755 459.668 106.224 459.668 95.6684C459.668 82.0732 468.561 74.9595 477.193 74.9595C484.832 74.9595 488.68 79.154 490.26 82.4163H490.422L490.645 75.8511H494.212ZM490.039 90.8039C490.039 89.4058 489.917 88.19 489.552 87.0552C487.952 82.3555 483.839 78.1611 477.457 78.1611C469.231 78.1611 463.558 84.9289 463.558 95.2213C463.558 103.975 468.157 111.552 477.354 111.552C482.541 111.552 487.383 108.33 489.348 102.739C489.794 101.462 490.037 100.003 490.037 98.6255V90.8039H490.039Z" fill="#4D4D4D" stroke="#4D4D4D" stroke-miterlimit="10"/>
<path d="M513.644 94.9376C513.644 107.359 520.411 112.282 528.434 112.282C534.107 112.282 537.045 111.147 539.253 110.073L540.246 113.112C538.747 113.923 534.755 115.605 527.968 115.605C516.784 115.605 509.836 107.459 509.836 96.0723C509.836 83.085 517.272 74.9595 527.32 74.9595C540.063 74.9595 542.475 86.935 542.475 92.5479C542.475 93.6421 542.475 94.25 542.353 94.9389H513.645L513.644 94.9376ZM538.441 91.8589C538.543 86.4284 536.273 78.1611 526.812 78.1611C518.262 78.1611 514.554 85.8611 513.845 91.8589H538.441Z" fill="#4D4D4D" stroke="#4D4D4D" stroke-miterlimit="10"/>
</svg>
