<svg width="286" height="187" viewBox="0 0 286 187" fill="none" xmlns="http://www.w3.org/2000/svg">
<g clip-path="url(#clip0_12794_12763)">
<path d="M159.346 112.886H104.071C103.159 112.886 102.416 112.144 102.416 111.232V60.7405C102.416 45.2266 115.045 32.6064 130.567 32.6064H133.17C138.495 32.6064 143.671 34.1324 148.137 37.0188C148.837 37.4715 149.038 38.4059 148.585 39.1061C148.132 39.8087 147.196 40.0066 146.496 39.5539C142.52 36.9838 137.911 35.6245 133.17 35.6245H130.567C116.71 35.6245 105.436 46.8914 105.436 60.7405V109.868H157.981V60.7574C157.981 58.0267 157.552 55.3431 156.704 52.7777C156.444 51.987 156.874 51.1335 157.665 50.8715C158.456 50.6096 159.31 51.0406 159.572 51.8313C160.52 54.7008 161.001 57.7044 161.001 60.7562V111.231C161.001 112.142 160.258 112.886 159.346 112.886Z" fill="#4D4D4D"/>
<path d="M154.502 90.5893H109.164C108.331 90.5893 107.654 89.9133 107.654 89.0803C107.654 88.2473 108.331 87.5713 109.164 87.5713H154.502C155.335 87.5713 156.012 88.2473 156.012 89.0803C156.012 89.9133 155.335 90.5893 154.502 90.5893Z" fill="#4D4D4D"/>
<path d="M143.021 97.0625H120.942C120.108 97.0625 119.432 96.3864 119.432 95.5534C119.432 94.7205 120.108 94.0444 120.942 94.0444H143.021C143.855 94.0444 144.531 94.7205 144.531 95.5534C144.531 96.3864 143.855 97.0625 143.021 97.0625Z" fill="#4D4D4D"/>
<path d="M120.995 78.8731C125.497 78.8731 129.146 75.2259 129.146 70.7268C129.146 66.2278 125.497 62.5806 120.995 62.5806C116.493 62.5806 112.844 66.2278 112.844 70.7268C112.844 75.2259 116.493 78.8731 120.995 78.8731Z" fill="#FAC171"/>
<path d="M145.294 56.8251C145.063 57.0001 144.726 56.8408 144.697 56.5535C144.528 54.867 144.518 50.6731 148.499 50.2204C151.663 49.8595 158.642 53.5873 158.642 53.5873C153.521 53.9012 147.956 54.8054 145.294 56.8251Z" fill="#4D4D4D"/>
<path d="M145.981 44.42C145.301 44.1592 145.203 43.2429 145.802 42.8288C147.469 41.6748 150.45 40.412 153.444 43.0908C156.302 45.6489 158.738 53.9412 158.738 53.9412C154.627 49.9212 149.761 45.8662 145.981 44.42Z" fill="#4D4D4D"/>
<path d="M172.055 36.7862C172.39 36.4977 172.213 35.9521 171.772 35.9207C168.989 35.7275 162.067 35.7831 159.693 40.77C157.794 44.7623 158.318 53.9709 158.318 53.9709C161.071 47.5787 168.169 40.1351 172.055 36.7862Z" fill="#4D4D4D"/>
<path d="M174.594 51.7057C174.883 51.7709 175.139 51.5101 175.037 51.2312C174.451 49.6293 172.513 45.7046 167.862 46.8346C164.188 47.7279 158.191 53.8666 158.191 53.8666C164.063 52.1584 170.717 50.8304 174.594 51.7057Z" fill="#4D4D4D"/>
</g>
<g clip-path="url(#clip1_12794_12763)">
<path d="M4.60156 133.995C6.52246 133.547 8.9684 133.252 11.5552 133.252C15.858 133.252 18.6745 134.187 20.5826 136.108C21.9784 137.504 22.7084 139.374 22.7084 141.795C22.7084 145.316 20.2112 148.301 16.7664 149.493V149.633C19.6477 150.273 24.053 152.796 24.053 158.419C24.053 161.237 23.0541 163.402 21.4918 165.015C19.2123 167.372 15.4986 168.32 10.5948 168.32C7.96953 168.32 5.94619 168.127 4.60156 168.013V133.995ZM7.0347 148.711H12.0802C17.0746 148.711 20.2112 145.753 20.2112 141.923C20.2112 137.069 16.5359 135.301 11.4143 135.301C9.12207 135.301 7.81586 135.481 7.0347 135.674V148.711ZM7.0347 165.988C8.04637 166.206 9.46783 166.27 11.2607 166.27C16.5623 166.27 21.5183 164.374 21.5183 158.496C21.5183 153.04 16.8569 150.71 11.3887 150.696H7.0347V165.988Z" fill="#4D4D4D" stroke="#4D4D4D" stroke-miterlimit="10"/>
<path d="M55.4267 155.524C55.4267 164.707 49.139 168.614 43.6581 168.614C37.2935 168.614 32.3896 163.67 32.3896 155.947C32.3896 147.533 37.909 142.896 44.0175 142.896C50.8038 142.896 55.4267 147.993 55.4267 155.524ZM34.8484 155.832C34.8484 161.98 38.767 166.591 43.8254 166.591C48.935 166.591 52.968 161.942 52.968 155.641C52.968 151.145 50.4324 144.92 43.9526 144.92C37.6905 144.92 34.8484 150.53 34.8484 155.832Z" fill="#4D4D4D" stroke="#4D4D4D" stroke-miterlimit="10"/>
<path d="M65.5184 149.338C65.5184 147.084 65.4415 145.394 65.3135 143.459H67.5801L67.7594 147.904H67.8619C69.2065 145.137 72.2919 142.896 76.3266 142.896C78.6701 142.896 84.9058 144.099 84.9058 153.309V168.05H82.4726V153.526C82.4726 149.043 80.7438 144.983 75.6598 144.983C72.2022 144.983 69.2569 147.455 68.2836 150.644C68.1043 151.233 67.9507 152.066 67.9507 152.834V168.049H65.5175V149.337L65.5184 149.338Z" fill="#4D4D4D" stroke="#4D4D4D" stroke-miterlimit="10"/>
<path d="M117.408 168.051L105.96 133.521H108.521L114.617 152.029C116.269 157.025 117.69 161.417 118.663 165.259H118.792C119.816 161.366 121.417 156.871 123.197 152.042L129.933 133.522H132.52L119.74 168.052H117.409L117.408 168.051Z" fill="#4D4D4D" stroke="#4D4D4D" stroke-miterlimit="10"/>
<path d="M160.691 155.524C160.691 164.707 154.404 168.614 148.923 168.614C142.558 168.614 137.654 163.67 137.654 155.947C137.654 147.533 143.174 142.896 149.281 142.896C156.068 142.896 160.691 147.993 160.691 155.524ZM140.113 155.832C140.113 161.98 144.032 166.591 149.09 166.591C154.199 166.591 158.233 161.942 158.233 155.641C158.233 151.145 155.697 144.92 149.217 144.92C142.955 144.92 140.112 150.53 140.112 155.832H140.113Z" fill="#FAC171" stroke="#FAC171" stroke-miterlimit="10"/>
<path d="M170.591 143.459L177.032 159.533C177.711 161.275 178.39 163.26 178.838 164.835H178.94C179.44 163.311 180.08 161.39 180.81 159.379L186.829 143.458H189.428L182.052 161.812C179.081 169.445 176.994 174.004 173.779 176.797C171.833 178.462 170.053 179.166 169.477 179.359L168.695 177.322C169.912 176.861 171.538 176.002 172.985 174.582C174.215 173.378 175.854 171.327 177.095 168.395C177.3 167.87 177.39 167.576 177.39 167.332C177.39 167.102 177.313 166.756 177.095 166.256L167.99 143.458H170.59L170.591 143.459Z" fill="#4D4D4D" stroke="#4D4D4D" stroke-miterlimit="10"/>
<path d="M212.26 168.05L211.902 164.528H211.786C210.596 166.424 207.855 168.614 203.949 168.614C199.006 168.614 196.714 165.13 196.714 161.851C196.714 156.177 201.708 152.758 211.709 152.86V152.207C211.709 149.773 211.235 144.919 205.421 144.958C203.27 144.958 201.029 145.534 199.249 146.79L198.48 145.023C200.721 143.498 203.462 142.896 205.69 142.896C212.785 142.896 214.141 148.225 214.141 152.618V162.21C214.141 164.157 214.218 166.168 214.5 168.051H212.259L212.26 168.05ZM211.71 154.911C206.357 154.756 199.289 155.564 199.289 161.468C199.289 165.003 201.619 166.591 204.18 166.591C208.278 166.591 210.608 164.055 211.454 161.661C211.633 161.135 211.71 160.61 211.71 160.188V154.911Z" fill="#4D4D4D" stroke="#4D4D4D" stroke-miterlimit="10"/>
<path d="M245.747 143.459C245.619 145.292 245.542 147.238 245.542 149.811V164.464C245.542 170.765 244.249 173.89 242.174 175.85C239.933 177.989 236.629 178.757 233.851 178.757C231.046 178.757 227.909 178.04 226.039 176.643L226.91 174.683C228.613 175.798 231.033 176.733 234.221 176.733C239.382 176.733 243.108 174.056 243.108 166.768V163.298H243.006C241.725 165.795 238.844 168.049 234.452 168.049C228.28 168.049 223.913 162.657 223.913 155.984C223.913 147.391 229.534 142.894 234.99 142.894C239.818 142.894 242.25 145.545 243.249 147.608H243.352L243.493 143.458H245.746L245.747 143.459ZM243.109 152.912C243.109 152.029 243.032 151.26 242.802 150.543C241.79 147.572 239.191 144.92 235.157 144.92C229.958 144.92 226.372 149.198 226.372 155.705C226.372 161.237 229.279 166.027 235.092 166.027C238.37 166.027 241.431 163.991 242.673 160.457C242.955 159.65 243.108 158.728 243.108 157.857V152.913L243.109 152.912Z" fill="#4D4D4D" stroke="#4D4D4D" stroke-miterlimit="10"/>
<path d="M258.029 155.524C258.029 163.375 262.306 166.487 267.377 166.487C270.963 166.487 272.82 165.77 274.216 165.091L274.843 167.013C273.895 167.526 271.373 168.588 267.083 168.588C260.014 168.588 255.622 163.44 255.622 156.242C255.622 148.032 260.322 142.896 266.673 142.896C274.728 142.896 276.252 150.465 276.252 154.013C276.252 154.706 276.252 155.09 276.175 155.525H258.03L258.029 155.524ZM273.703 153.578C273.767 150.145 272.333 144.919 266.353 144.919C260.949 144.919 258.605 149.786 258.157 153.578H273.702H273.703Z" fill="#4D4D4D" stroke="#4D4D4D" stroke-miterlimit="10"/>
</g>
<defs>
<clipPath id="clip0_12794_12763">
<rect width="113.546" height="140.037" fill="white" transform="translate(75.9824)"/>
</clipPath>
<clipPath id="clip1_12794_12763">
<rect width="286" height="62.3333" fill="white" transform="translate(0 124.667)"/>
</clipPath>
</defs>
</svg>
