<svg width="22" height="22" viewBox="0 0 22 22" fill="none" xmlns="http://www.w3.org/2000/svg">
<g id="4747497_social media_facebook_icon">
<path id="Vector" d="M18.3457 1.06543H3.46855C2.69562 1.06543 1.95434 1.37247 1.4078 1.91902C0.861246 2.46558 0.554199 3.20685 0.554199 3.97979V18.8569C0.554199 19.6299 0.861246 20.3712 1.4078 20.9177C1.95434 21.4642 2.69562 21.7713 3.46855 21.7713H10.2394V14.2137H7.67961V11.2657H10.2394V9.09414C10.2394 7.86343 10.5797 6.90708 11.2604 6.22767C11.9411 5.54696 12.8638 5.20532 14.0298 5.20532C15.1971 5.20532 15.9529 5.25061 16.2984 5.33602V7.96049H14.7429C14.1812 7.96049 13.7982 8.07955 13.5924 8.31767C13.3879 8.55449 13.2857 8.91167 13.2857 9.38661V11.2657H16.2013L15.8131 14.2137H13.2857V21.7713H18.3457C19.1187 21.7713 19.8599 21.4642 20.4065 20.9177C20.9531 20.3712 21.2601 19.6299 21.2601 18.8569V3.97979C21.2601 3.20685 20.9531 2.46558 20.4065 1.91902C19.8599 1.37247 19.1187 1.06543 18.3457 1.06543Z" fill="#D9D9D9"/>
</g>
</svg>
