<svg width="22" height="22" viewBox="0 0 22 22" fill="none" xmlns="http://www.w3.org/2000/svg">
<g id="1916008_instagram_logo_media_social_icon" clip-path="url(#clip0_12401_11424)">
<g id="Instagram">
<path id="Vector" d="M15.5834 21.0837H6.41675C4.95806 21.0837 3.55911 20.5042 2.52766 19.4727C1.49621 18.4413 0.916748 17.0423 0.916748 15.5837V6.41699C0.916748 4.9583 1.49621 3.55935 2.52766 2.5279C3.55911 1.49645 4.95806 0.916992 6.41675 0.916992H15.5834C17.0421 0.916992 18.4411 1.49645 19.4725 2.5279C20.504 3.55935 21.0834 4.9583 21.0834 6.41699V15.5837C21.0834 17.0423 20.504 18.4413 19.4725 19.4727C18.4411 20.5042 17.0421 21.0837 15.5834 21.0837ZM6.41675 2.75033C5.44429 2.75033 4.51166 3.13663 3.82402 3.82427C3.13639 4.5119 2.75008 5.44453 2.75008 6.41699V15.5837C2.75008 16.5561 3.13639 17.4887 3.82402 18.1764C4.51166 18.864 5.44429 19.2503 6.41675 19.2503H15.5834C16.5559 19.2503 17.4885 18.864 18.1761 18.1764C18.8638 17.4887 19.2501 16.5561 19.2501 15.5837V6.41699C19.2501 5.44453 18.8638 4.5119 18.1761 3.82427C17.4885 3.13663 16.5559 2.75033 15.5834 2.75033H6.41675Z" fill="#D9D9D9"/>
<g id="&#60;Group&#62;">
<path id="Vector_2" d="M11 16.5C9.91221 16.5 8.84884 16.1774 7.94437 15.5731C7.0399 14.9687 6.33495 14.1098 5.91867 13.1048C5.50238 12.0998 5.39346 10.9939 5.60568 9.92701C5.8179 8.86011 6.34173 7.8801 7.11092 7.11092C7.8801 6.34173 8.86011 5.8179 9.92701 5.60568C10.9939 5.39346 12.0998 5.50238 13.1048 5.91867C14.1098 6.33495 14.9687 7.0399 15.5731 7.94437C16.1774 8.84884 16.5 9.91221 16.5 11C16.5 12.4587 15.9205 13.8576 14.8891 14.8891C13.8576 15.9205 12.4587 16.5 11 16.5ZM11 7.33334C10.2748 7.33334 9.56589 7.54838 8.96291 7.95128C8.35993 8.35418 7.88997 8.92683 7.61244 9.59683C7.33492 10.2668 7.26231 11.0041 7.40379 11.7153C7.54527 12.4266 7.89448 13.0799 8.40728 13.5927C8.92007 14.1055 9.57341 14.4547 10.2847 14.5962C10.9959 14.7377 11.7332 14.6651 12.4032 14.3876C13.0732 14.11 13.6458 13.6401 14.0487 13.0371C14.4516 12.4341 14.6667 11.7252 14.6667 11C14.6667 10.0275 14.2804 9.09491 13.5927 8.40728C12.9051 7.71964 11.9725 7.33334 11 7.33334Z" fill="#D9D9D9"/>
</g>
<g id="&#60;Group&#62;_2">
<path id="Vector_3" d="M16.5002 5.50033C17.0064 5.50033 17.4168 5.08992 17.4168 4.58366C17.4168 4.0774 17.0064 3.66699 16.5002 3.66699C15.9939 3.66699 15.5835 4.0774 15.5835 4.58366C15.5835 5.08992 15.9939 5.50033 16.5002 5.50033Z" fill="#D9D9D9"/>
</g>
</g>
</g>
<defs>
<clipPath id="clip0_12401_11424">
<rect width="22" height="22" fill="white"/>
</clipPath>
</defs>
</svg>
