<svg xmlns="http://www.w3.org/2000/svg" width="16" height="16" viewBox="0 0 16 16" fill="none">
<path d="M6.11284 8.00034L11.1346 13.0221C11.2671 13.1546 11.3317 13.3123 11.3282 13.4952C11.3248 13.6781 11.2569 13.8358 11.1244 13.9683C10.9919 14.1008 10.8342 14.167 10.6513 14.167C10.4684 14.167 10.3107 14.1008 10.1783 13.9683L5.07441 8.85417C4.9539 8.73366 4.86458 8.59863 4.80646 8.44906C4.74835 8.29948 4.71929 8.14991 4.71929 8.00034C4.71929 7.85078 4.74835 7.7012 4.80646 7.55162C4.86458 7.40206 4.9539 7.26702 5.07441 7.14651L10.1885 2.03241C10.321 1.89993 10.477 1.8354 10.6565 1.83881C10.8359 1.84223 10.9919 1.91018 11.1244 2.04266C11.2569 2.17514 11.3231 2.33283 11.3231 2.51573C11.3231 2.69863 11.2569 2.85631 11.1244 2.98879L6.11284 8.00034Z" fill="#333236"/>
</svg>