<?xml version="1.0" encoding="UTF-8"?>
<svg id="_레이어_2" data-name="레이어 2" xmlns="http://www.w3.org/2000/svg" viewBox="0 0 326.556 66.22">
  <defs>
    <style>
      .cls-1 {
        fill: #4d4d4d;
        stroke: #4d4d4d;
      }

      .cls-1, .cls-2 {
        stroke-miterlimit: 10;
      }

      .cls-2 {
        fill: #fac171;
        stroke: #fac171;
      }
    </style>
  </defs>
  <g id="_레이어_1-2" data-name="레이어 1">
    <g>
      <path class="cls-1" d="M5.39,10.837c2.25-.525,5.115-.87,8.145-.87,5.04,0,8.339,1.095,10.574,3.345,1.635,1.635,2.49,3.825,2.49,6.66,0,4.125-2.925,7.62-6.96,9.015v.165c3.375.75,8.535,3.705,8.535,10.29,0,3.3-1.17,5.834-3,7.725-2.67,2.76-7.02,3.87-12.764,3.87-3.075,0-5.445-.225-7.02-.36V10.837ZM8.24,28.071h5.91c5.85,0,9.524-3.465,9.524-7.95,0-5.685-4.305-7.755-10.304-7.755-2.685,0-4.215.21-5.13.435v15.27ZM8.24,48.305c1.185.255,2.85.33,4.95.33,6.21,0,12.015-2.22,12.015-9.104,0-6.39-5.46-9.12-11.865-9.135h-5.1v17.909Z"/>
      <path class="cls-1" d="M64.923,36.051c0,10.754-7.365,15.33-13.785,15.33-7.455,0-13.199-5.79-13.199-14.834,0-9.854,6.465-15.285,13.62-15.285,7.949,0,13.364,5.97,13.364,14.79ZM40.819,36.411c0,7.2,4.59,12.6,10.515,12.6,5.985,0,10.709-5.445,10.709-12.824,0-5.265-2.97-12.555-10.56-12.555-7.335,0-10.665,6.57-10.665,12.779Z"/>
      <path class="cls-1" d="M76.744,28.806c0-2.64-.09-4.62-.24-6.885h2.655l.21,5.205h.12c1.575-3.24,5.189-5.865,9.915-5.865,2.745,0,10.049,1.41,10.049,12.195v17.264h-2.85v-17.009c0-5.25-2.025-10.004-7.98-10.004-4.05,0-7.5,2.895-8.64,6.629-.21.69-.39,1.665-.39,2.565v17.819h-2.85v-21.914Z"/>
      <path class="cls-1" d="M137.523,50.72l-13.409-40.438h3l7.14,21.674c1.935,5.85,3.6,10.995,4.74,15.494h.15c1.2-4.56,3.075-9.824,5.16-15.479l7.89-21.689h3.03l-14.969,40.438h-2.73Z"/>
      <path class="cls-2" d="M188.223,36.051c0,10.754-7.365,15.33-13.785,15.33-7.455,0-13.199-5.79-13.199-14.834,0-9.854,6.465-15.285,13.619-15.285,7.95,0,13.365,5.97,13.365,14.79ZM164.119,36.411c0,7.2,4.59,12.6,10.515,12.6,5.984,0,10.709-5.445,10.709-12.824,0-5.265-2.97-12.555-10.56-12.555-7.335,0-10.665,6.57-10.665,12.779Z"/>
      <path class="cls-1" d="M199.818,21.921l7.545,18.824c.795,2.04,1.59,4.365,2.115,6.21h.12c.585-1.785,1.335-4.035,2.19-6.39l7.05-18.644h3.045l-8.64,21.494c-3.48,8.939-5.925,14.279-9.69,17.549-2.28,1.95-4.365,2.775-5.04,3l-.915-2.385c1.425-.54,3.33-1.545,5.025-3.209,1.44-1.41,3.36-3.81,4.814-7.245.24-.615.345-.96.345-1.245,0-.27-.09-.675-.345-1.26l-10.665-26.699h3.045Z"/>
      <path class="cls-1" d="M248.627,50.72l-.42-4.125h-.135c-1.395,2.22-4.605,4.785-9.18,4.785-5.79,0-8.475-4.08-8.475-7.92,0-6.645,5.85-10.649,17.564-10.529v-.765c0-2.85-.555-8.535-7.365-8.49-2.52,0-5.145.675-7.23,2.145l-.9-2.07c2.625-1.785,5.835-2.49,8.445-2.49,8.31,0,9.899,6.24,9.899,11.385v11.234c0,2.28.09,4.635.42,6.84h-2.625ZM247.982,35.331c-6.27-.18-14.549.765-14.549,7.68,0,4.14,2.729,6,5.729,6,4.8,0,7.53-2.97,8.52-5.775.21-.615.3-1.23.3-1.725v-6.18Z"/>
      <path class="cls-1" d="M287.851,21.921c-.15,2.145-.24,4.425-.24,7.439v17.16c0,7.379-1.515,11.04-3.945,13.334-2.625,2.505-6.495,3.405-9.75,3.405-3.285,0-6.96-.84-9.15-2.475l1.02-2.295c1.995,1.305,4.83,2.4,8.564,2.4,6.045,0,10.41-3.135,10.41-11.669v-4.065h-.12c-1.5,2.925-4.875,5.565-10.02,5.565-7.229,0-12.344-6.315-12.344-14.129,0-10.064,6.584-15.33,12.975-15.33,5.655,0,8.504,3.105,9.674,5.52h.12l.165-4.86h2.64ZM284.761,32.991c0-1.035-.09-1.935-.36-2.775-1.185-3.479-4.23-6.584-8.955-6.584-6.09,0-10.29,5.01-10.29,12.629,0,6.48,3.405,12.089,10.214,12.089,3.84,0,7.425-2.385,8.88-6.524.33-.945.51-2.025.51-3.045v-5.79Z"/>
      <path class="cls-1" d="M302.236,36.051c0,9.195,5.01,12.839,10.95,12.839,4.2,0,6.375-.84,8.01-1.635l.735,2.25c-1.11.6-4.065,1.845-9.09,1.845-8.28,0-13.424-6.03-13.424-14.459,0-9.614,5.505-15.629,12.944-15.629,9.435,0,11.22,8.865,11.22,13.02,0,.81,0,1.26-.09,1.77h-21.254ZM320.596,33.771c.075-4.02-1.605-10.14-8.61-10.14-6.33,0-9.075,5.7-9.6,10.14h18.209Z"/>
    </g>
  </g>
</svg>