<?xml version="1.0" encoding="UTF-8"?>
<svg id="_레이어_2" data-name="레이어 2" xmlns="http://www.w3.org/2000/svg" viewBox="0 0 60.139 66.5">
  <defs>
    <style>
      .cls-1 {
        fill: #fac171;
      }

      .cls-1, .cls-2 {
        stroke-width: 0px;
      }

      .cls-2 {
        fill: #4d4d4d;
      }
    </style>
  </defs>
  <g id="_레이어_1-2" data-name="레이어 1">
    <g>
      <path class="cls-2" d="M47.13,66.5H1.37c-.755,0-1.37-.615-1.37-1.37V23.305C0,10.455,10.455,0,23.305,0h2.155c4.408,0,8.693,1.264,12.39,3.655.58.375.746,1.149.371,1.729-.375.582-1.15.746-1.729.371-3.292-2.129-7.107-3.255-11.032-3.255h-2.155C11.833,2.5,2.5,11.833,2.5,23.305v40.695h43.5V23.319c0-2.262-.355-4.485-1.057-6.61-.216-.655.14-1.362.795-1.579.655-.217,1.362.14,1.579.795.785,2.377,1.183,4.865,1.183,7.393v41.811c0,.755-.615,1.37-1.37,1.37Z"/>
      <path class="cls-2" d="M43.121,48.03H5.587c-.69,0-1.25-.56-1.25-1.25s.56-1.25,1.25-1.25h37.533c.69,0,1.25.56,1.25,1.25s-.56,1.25-1.25,1.25Z"/>
      <path class="cls-2" d="M33.616,53.392H15.336c-.69,0-1.25-.56-1.25-1.25s.56-1.25,1.25-1.25h18.279c.69,0,1.25.56,1.25,1.25s-.56,1.25-1.25,1.25Z"/>
      <circle class="cls-1" cx="15.382" cy="31.577" r="6.748"/>
      <g>
        <path class="cls-2" d="M35.497,20.061c-.191.145-.47.013-.494-.225-.14-1.397-.148-4.871,3.147-5.246,2.62-.299,8.397,2.789,8.397,2.789-4.239.26-8.846,1.01-11.05,2.683Z"/>
        <path class="cls-2" d="M36.066,9.784c-.563-.216-.644-.975-.148-1.318,1.38-.956,3.848-2.002,6.326.217,2.366,2.119,4.383,8.988,4.383,8.988-3.403-3.33-7.432-6.69-10.561-7.888Z"/>
        <path class="cls-2" d="M57.651,3.462c.277-.239.131-.691-.234-.717-2.304-.16-8.035-.114-10,4.017-1.572,3.307-1.138,10.935-1.138,10.935,2.279-5.295,8.155-11.462,11.372-14.236Z"/>
        <path class="cls-2" d="M59.753,15.82c.239.054.451-.162.367-.393-.485-1.327-2.09-4.578-5.94-3.642-3.042.74-8.006,5.825-8.006,5.825,4.861-1.415,10.369-2.515,13.579-1.79Z"/>
      </g>
    </g>
  </g>
</svg>