<svg width="16" height="16" viewBox="0 0 16 16" fill="none" xmlns="http://www.w3.org/2000/svg">
<g id="add_FILL0_wght500_GRAD0_opsz24 1">
<path id="Vector" d="M7.2416 8.75876H3.9561C3.74329 8.75876 3.5637 8.68557 3.41732 8.53919C3.27094 8.39281 3.19775 8.21323 3.19775 8.00043C3.19775 7.78763 3.27094 7.60804 3.41732 7.46166C3.5637 7.31528 3.74329 7.24209 3.9561 7.24209H7.2416V3.95659C7.2416 3.74378 7.31479 3.56419 7.46117 3.41781C7.60755 3.27143 7.78714 3.19824 7.99994 3.19824C8.21274 3.19824 8.39233 3.27143 8.5387 3.41781C8.68508 3.56419 8.75827 3.74378 8.75827 3.95659V7.24209H12.0438C12.2566 7.24209 12.4362 7.31528 12.5826 7.46166C12.7289 7.60804 12.8021 7.78763 12.8021 8.00043C12.8021 8.21323 12.7289 8.39281 12.5826 8.53919C12.4362 8.68557 12.2566 8.75876 12.0438 8.75876H8.75827V12.0443C8.75827 12.2571 8.68508 12.4367 8.5387 12.583C8.39233 12.7294 8.21274 12.8026 7.99994 12.8026C7.78714 12.8026 7.60755 12.7294 7.46117 12.583C7.31479 12.4367 7.2416 12.2571 7.2416 12.0443V8.75876Z" fill="#5534DA"/>
</g>
</svg>
